<?xml version="1.0" standalone="no"?>
<!DOCTYPE svg PUBLIC "-//W3C//DTD SVG 20010904//EN"
 "http://www.w3.org/TR/2001/REC-SVG-20010904/DTD/svg10.dtd">
<svg version="1.0" xmlns="http://www.w3.org/2000/svg"
 width="640.000000pt" height="187.000000pt" viewBox="0 0 640.000000 187.000000"
 preserveAspectRatio="xMidYMid meet">

<g transform="translate(0.000000,187.000000) scale(0.100000,-0.100000)"
fill="#000000" stroke="none">
<path d="M2403 1594 c-3 -8 -1 -20 6 -27 18 -18 13 -42 -24 -120 -19 -41 -35
-80 -35 -88 0 -22 -67 -117 -95 -135 -14 -9 -25 -25 -25 -35 0 -11 -6 -19 -13
-19 -19 0 -37 -44 -37 -89 0 -20 -7 -46 -16 -57 -13 -16 -15 -16 -10 -1 3 9 1
17 -5 17 -6 0 -7 4 -4 10 3 6 -1 7 -9 4 -9 -3 -16 -12 -16 -18 0 -7 -8 -21
-17 -32 -10 -10 -29 -36 -43 -56 -14 -21 -28 -38 -32 -38 -23 0 -113 -114
-103 -131 10 -15 -4 -10 -34 12 -35 26 -68 22 -93 -12 -31 -41 -17 -71 43 -91
27 -9 49 -12 49 -7 0 13 28 11 32 -3 3 -7 14 -9 33 -4 20 5 25 10 16 15 -22
14 61 50 102 45 35 -4 57 8 38 20 -5 4 -12 2 -16 -3 -3 -6 -13 -4 -25 6 -18
16 -18 17 8 43 15 14 32 24 39 22 7 -2 24 8 38 22 31 31 35 32 28 6 -3 -11 -9
-20 -14 -20 -12 0 -49 -32 -49 -42 0 -16 18 -7 51 26 18 19 37 32 42 29 10 -6
37 16 37 30 0 7 -4 7 -12 -1 -19 -19 -33 -14 -15 6 10 10 17 22 17 27 0 5 7
16 16 26 14 16 20 17 43 5 14 -7 41 -16 59 -19 18 -4 53 -22 79 -42 55 -42 87
-44 151 -10 26 14 57 25 70 25 32 0 99 36 112 60 18 33 1 108 -30 144 -26 28
-33 31 -88 29 -51 -1 -70 -7 -119 -37 -60 -37 -120 -49 -110 -22 5 12 1 13
-24 4 -32 -11 -59 -5 -59 12 0 7 8 9 19 5 11 -3 21 0 24 9 3 8 21 17 39 21 30
7 87 47 163 117 25 23 39 28 83 28 55 0 66 -12 35 -36 -16 -12 -12 -13 27 -8
45 5 59 0 147 -52 l32 -19 26 25 c16 16 27 41 31 72 6 45 5 48 -37 92 -37 38
-53 48 -98 56 -29 6 -74 10 -100 10 -45 1 -47 2 -103 75 -39 50 -75 84 -110
105 -58 33 -105 39 -115 14z m-74 -483 c8 -5 9 -11 3 -15 -5 -3 -9 -17 -9 -32
0 -28 -23 -50 -34 -32 -4 6 -12 7 -18 4 -6 -4 -11 0 -11 8 0 9 -7 16 -16 16
-9 0 -14 6 -11 13 2 6 12 11 22 9 11 -2 14 1 10 8 -14 23 35 39 64 21z m-99
-21 c0 -5 -4 -10 -10 -10 -5 0 -10 5 -10 10 0 6 5 10 10 10 6 0 10 -4 10 -10z
m24 -118 c-41 -41 -81 -52 -56 -16 11 17 55 44 70 44 9 0 3 -11 -14 -28z m-30
-67 c-9 -14 -20 -22 -26 -19 -5 3 -2 14 8 25 25 27 37 23 18 -6z m-214 -140
c-7 -8 -20 -15 -29 -15 -11 1 -8 5 9 15 32 18 35 18 20 0z"/>
<path d="M3604 1487 c-91 -92 -118 -126 -150 -191 -31 -63 -39 -91 -39 -133 0
-61 14 -76 51 -59 16 8 24 19 24 38 0 34 16 77 38 101 62 68 76 78 106 76 17
-2 36 0 43 4 6 4 44 -5 86 -20 71 -26 76 -26 100 -10 40 26 49 76 26 138 -23
61 -72 132 -105 154 -45 29 -64 19 -180 -98z m-94 -243 c0 -3 -5 -15 -12 -27
-11 -21 -11 -21 -18 -2 -4 11 -6 23 -3 28 5 8 33 10 33 1z"/>
<path d="M4261 1573 c-8 -3 -34 -20 -57 -38 -23 -18 -77 -47 -120 -65 -93 -38
-98 -42 -90 -68 8 -24 43 -38 110 -46 53 -6 101 -40 91 -63 -18 -46 -19 -44 8
-32 20 9 30 8 48 -5 13 -9 38 -16 56 -16 25 0 39 8 64 39 17 22 44 44 60 50
54 19 49 128 -9 190 -33 35 -127 66 -161 54z"/>
<path d="M5062 1493 c-25 -21 -96 -245 -107 -335 -16 -143 57 -259 137 -218
53 28 57 37 51 110 l-6 67 33 5 32 5 -4 -107 c-5 -125 -14 -145 -105 -230 -69
-66 -134 -110 -184 -124 -20 -6 -37 -14 -38 -18 -9 -54 15 -69 124 -77 89 -7
105 -21 65 -61 -19 -19 -20 -25 -10 -51 19 -46 65 -79 110 -79 38 0 48 11 55
63 1 10 16 37 34 60 17 23 51 72 76 109 46 68 78 98 153 138 23 13 42 27 42
30 0 4 11 12 25 18 30 14 33 46 8 115 -14 39 -27 54 -60 74 -52 30 -54 47 -10
68 40 19 78 66 94 118 14 46 1 94 -37 137 -34 38 -117 50 -175 26 -54 -23 -62
-21 -114 32 -50 50 -148 135 -160 140 -5 1 -18 -5 -29 -15z"/>
<path d="M4343 1186 c-13 -7 -31 -20 -41 -29 -42 -38 -298 -147 -347 -147 -16
0 -50 -6 -74 -13 -42 -13 -45 -16 -58 -66 -22 -86 5 -115 107 -113 39 1 70 -2
70 -7 0 -12 93 -51 120 -51 24 0 120 50 120 63 0 4 7 7 15 7 8 0 15 -5 15 -12
0 -7 5 -63 11 -125 21 -217 -9 -289 -155 -363 l-88 -45 48 -42 c58 -51 92 -59
167 -40 42 11 64 24 89 52 65 74 76 124 54 245 -16 83 -21 338 -8 372 11 27
91 80 111 73 18 -5 53 25 63 55 9 25 -47 153 -75 174 -31 23 -113 30 -144 12z"/>
<path d="M1276 1113 c-3 -4 -81 -10 -173 -15 -220 -10 -295 -23 -468 -79 -139
-45 -197 -78 -218 -123 -17 -36 -17 -39 -1 -57 9 -10 37 -26 63 -35 25 -10 76
-35 113 -56 36 -21 70 -38 74 -38 3 0 45 22 93 49 47 27 97 52 111 56 14 4 36
15 50 25 30 20 125 40 189 40 54 -1 149 -30 190 -60 16 -11 33 -20 38 -20 5 0
28 16 51 35 53 46 65 101 33 162 -28 56 -126 134 -145 116z"/>
<path d="M5887 1089 c-43 -10 -93 -35 -157 -78 l-44 -30 -34 21 -33 20 -21
-22 c-18 -19 -20 -31 -15 -93 7 -93 32 -157 82 -212 45 -49 85 -63 109 -39 22
21 20 35 -9 73 -19 26 -22 38 -14 53 6 10 7 38 3 63 -6 43 -4 47 31 80 21 19
54 42 73 51 38 18 99 21 113 7 11 -11 -51 -91 -98 -126 -44 -32 -83 -82 -83
-106 0 -24 40 -54 62 -46 9 4 18 -3 25 -17 10 -22 15 -23 132 -23 66 1 125 5
130 10 23 25 21 53 -4 83 l-26 31 61 61 c52 52 60 65 60 98 0 32 -7 46 -40 79
-23 24 -59 48 -87 57 -50 17 -154 20 -216 5z"/>
<path d="M3615 1039 c-11 -22 -53 -92 -92 -157 -40 -64 -84 -150 -99 -190 -22
-62 -24 -77 -14 -107 23 -69 110 -51 110 23 0 23 12 57 30 89 23 41 40 56 82
77 80 38 128 85 128 126 0 35 -27 87 -69 133 -44 48 -54 49 -76 6z"/>
<path d="M2685 844 c-54 -15 -228 -75 -254 -89 -28 -14 -81 -73 -81 -89 0 -4
12 2 26 13 19 15 41 21 75 21 38 0 62 8 111 38 59 34 69 37 142 37 52 0 81 -4
83 -12 8 -23 -72 -95 -175 -156 -57 -34 -107 -68 -110 -75 -6 -17 15 -65 27
-58 4 3 27 -3 49 -14 35 -17 54 -19 134 -14 121 7 130 9 152 40 16 22 17 29 5
51 -10 18 -10 29 -2 42 30 48 73 176 68 201 -9 41 -55 62 -149 66 -44 1 -90 1
-101 -2z"/>
<path d="M2194 702 c-26 -4 -50 -76 -39 -113 4 -13 47 -63 97 -111 76 -75 95
-88 123 -88 27 0 37 6 54 34 12 18 21 41 21 50 0 10 -25 40 -54 67 -30 28 -58
59 -61 69 -3 11 -9 19 -13 18 -13 -4 -70 32 -88 55 -12 14 -27 22 -40 19z"/>
<path d="M5446 662 c4 -9 9 -44 10 -77 3 -83 2 -79 27 -108 29 -34 72 -50 86
-33 20 24 24 93 7 143 -19 55 -45 77 -99 86 -34 5 -38 4 -31 -11z"/>
<path d="M3589 549 c2 -29 -2 -62 -9 -75 -27 -49 17 -134 69 -134 51 0 56 12
38 77 -10 33 -17 73 -17 89 0 16 -6 36 -13 44 -13 17 -58 50 -67 50 -3 0 -3
-23 -1 -51z"/>
</g>
</svg>
