<?xml version="1.0" encoding="utf-8"?>
<!-- Generator: Adobe Illustrator 15.0.0, SVG Export Plug-In . SVG Version: 6.00 Build 0)  -->
<!DOCTYPE svg PUBLIC "-//W3C//DTD SVG 1.1//EN" "http://www.w3.org/Graphics/SVG/1.1/DTD/svg11.dtd">
<svg version="1.1" id="图层_1" xmlns="http://www.w3.org/2000/svg" xmlns:xlink="http://www.w3.org/1999/xlink" x="0px" y="0px"
	 width="1540px" height="549px" viewBox="0 0 1540 549" enable-background="new 0 0 1540 549" xml:space="preserve">
<g transform="translate(0.000000,549.000000) scale(0.100000,-0.100000)">
	<path d="M10390.001,4622.998c-17.002-13.999-30-35-30-46.997c0-12.002-8.008-33.003-17.002-46.001
		c-10-13.999-27.998-46.001-40-72.002c-12.002-26.997-26.006-47.998-30-47.998c-5,0-17.002-16.001-27.002-35
		c-10.996-18.999-72.998-85-137.998-146.001c-109.004-101.997-137.002-126.001-207.998-176.001
		c-14.004-8.999-40-30.996-58.007-47.998c-17.998-17.002-47.998-37.002-66.992-43.999c-19.004-6.001-60-28.003-92.002-47.002
		C9651.994,3896,9621.994,3880,9616.994,3880s-30-15-55.996-32.998c-77.002-56.001-215-96.001-254.004-75
		c-11.992,5.996-22.998,5.996-30,0c-16.992-14.004-130-26.001-215.996-23.003c-72.002,2.002-72.998,2.002-67.002-21.001
		c2.998-12.998,6.006-27.998,6.006-35c0-20.996,101.992-123.999,138.994-140c20-7.998,52.002-15,72.998-13.999
		c45,1.001,147.002,23.999,177.002,41.001c12.998,6.001,32.998,8.999,46.006,6.001c12.998-3.003,38.994,1.001,58.994,8.999
		c19.004,7.998,55,15,79.004,15c23.994,0,57.002,5,72.998,10c39.004,13.999,180.996,42.002,224.003,43.999
		c18.994,1.001,52.998,7.002,75,13.003c45,12.998,140.996,20,150,10.996c10.996-10.996-44.004-86.997-74.004-102.998
		c-15.996-7.998-32.998-25-37.002-37.002c-2.998-12.998-20-38.999-35.996-57.998c-37.998-43.999-90-128.999-122.997-200
		c-15-30-33.008-67.002-41.006-82.002c-7.998-13.999-13.994-33.999-13.994-45c0-10-7.002-30.996-15-46.997
		c-8.008-15-15-43.003-15-61.001s-7.002-51.001-14.004-73.999c-35.996-98.999-35.996-323.003-0.996-601.001
		c10-80.996,27.998-137.002,50-160c22.998-22.002,31.992-24.004,105.995-22.998c45,0.996,105.996,7.998,135,13.994
		c30,7.002,55.996,10,57.998,8.008c4.004-4.004,15-124.004,16.006-177.002c0-25,5-35,20-39.004c10.996-2.998,20-12.002,20-20
		c0-10.996-5-12.998-17.002-7.998c-10,4.004-36.006,10.996-57.998,15.996c-22.002,4.004-54.004,12.002-71.006,17.002
		c-17.002,6.006-80,15-139.999,22.002c-60,7.002-118.994,15.996-132.002,20.996c-12.998,5-31.992,9.004-42.998,9.004
		c-10.996,0-37.998,9.004-60,20c-30.996,15.996-67.002,22.002-168.994,27.002c-71.006,2.998-135,10-142.002,15
		c-10,5.996-5,15,20,37.002c17.002,15,32.002,31.992,32.002,36.992s26.992,34.004,60.996,63.008c32.998,28.994,65,65,70,77.998
		c5.996,17.002,5,55-2.002,110c-13.994,108.994-32.998,130.996-148.994,172.998c-47.002,17.002-103.008,40.996-125,52.998
		c-35,20-40,27.002-39.004,57.002c0.996,18.999,10.996,62.002,22.998,93.999c29.004,82.002,27.998,107.002-12.002,218.999
		c-13.994,40-81.992,57.002-231.992,56.001c-66.006-1.001-124.004-3.999-128.008-6.001c-15-8.999,51.006-42.998,96.006-48.999
		c50-7.998,82.002-26.001,98.994-56.001c6.006-12.998,15-77.998,19.004-145c5.996-107.002,10-130,35-178.994
		c30-60,47.998-72.002,135-97.002c109.004-32.002,162.998-92.002,155-174.004C9351.994,2340.996,9313,2260,9293,2260
		c-17.002,0-92.002-50.996-92.998-62.002c0-5,6.992-7.998,15-7.998c41.992,0-21.006-60-64.004-60.996
		c-14.004,0-39.004-9.004-55.996-20C9056.994,2085,9058,2085,8973,2060.996c-39.004-11.992-85-20.996-101.006-20.996
		c-16.992,0-33.994-5-36.992-10c-3.008-5.996-16.006-10-28.008-10c-15-0.996-8.994-5.996,18.008-15
		c21.992-7.998,53.994-12.002,70-9.004c16.992,3.008,51.992-1.992,80-11.992c53.994-18.008,157.998-24.004,190-10
		c37.998,15.996,216.992,17.998,300,1.992c153.994-27.998,200-38.994,215-51.992c7.998-7.002,37.998-18.008,65-24.004
		c27.998-7.002,60.996-17.998,75-25c54.999-29.004,107.997-52.998,164.999-74.004c32.998-12.998,113.994-48.994,180-80.996
		c65.996-32.002,148.994-67.002,185-79.004c63.994-20,113.994-36.992,215-71.992c133.994-47.002,270-50,520-14.004
		c165,24.004,173.994,27.002,220.996,62.002l47.002,35.996l-5,96.006c-5,110-21.006,145-74.004,166.992
		c-27.998,12.002-50,11.006-162.998-5.996c-70.996-10.996-137.002-22.998-145-25.996c-14.004-5-139.004,0-540.996,20.996
		c-99.004,5-175,17.998-237.002,40c-42.002,15-64.004,35-39.004,35c4.004,0,25,10.996,45,25
		c21.006,14.004,57.002,30.996,81.006,37.002c33.994,8.994,46.992,18.994,55.996,40c5.996,15.996,20.996,33.994,32.998,40
		c41.006,22.002,96.006,72.002,115,102.998c10,17.998,24.004,55.996,30,85c6.006,29.004,17.998,67.002,26.006,84.004
		c7.998,16.992,15.996,72.998,18.994,125.996c2.002,52.002,7.002,117.998,11.006,145c5.996,45.996-4.004,135-35,310
		c-5,27.998-14.004,117.002-20,198.999c-11.006,138.003-14.004,151.001-42.002,192.002c-16.006,23.999-32.998,43.999-37.998,43.999
		s-33.008,20-63.008,43.999c-71.992,58.999-87.998,66.001-140.996,66.001c-25,0-45.996,3.999-45.996,8.999
		s21.992,23.003,48.994,41.001c27.002,17.002,61.006,45,74.004,62.998c43.994,57.002,173.994,110,307.002,127.002
		c98.994,12.002,192.998,40,222.998,67.002c22.002,20.996,22.002,45-2.998,92.998c-11.006,22.002-20,46.001-20,55
		s-18.008,23.999-42.002,35c-56.006,26.001-214.004,27.998-260,3.999c-44.004-22.998-112.998-41.001-182.998-48.999
		c-33.008-2.998-96.006-12.002-140-20c-157.002-27.002-269.004-47.998-289.004-52.998c-19.004-5-19.004-4.004-7.002,10.996
		C9906.993,3926,10045.997,4030,10057.999,4030c3.994,0,22.002,16.001,37.998,35s50,50,75.996,67.998
		c27.002,17.002,48.008,35,48.008,39.004c0,3.999,15,15,32.998,23.999c17.002,8.999,58.994,41.997,92.002,71.997
		c32.998,30,80,64.004,105,76.001c82.998,38.999,100,58.003,102.998,113.999c0.996,36.001-2.998,55-16.006,70
		c-10,11.001-18.994,31.001-20,45c-1.992,27.002-37.998,60-75,70C10426.993,4646,10410.001,4640,10390.001,4622.998z
		 M10147.999,3292.998c23.994-35,32.998-80,17.998-91.997c-10-8.003-97.002-16.001-132.998-12.002
		c-15,1.001-17.002,33.999-4.004,58.999c5,9.004,12.002,25,15,35c2.998,9.004,14.004,17.002,25,17.002c11.006,0,22.998,5,26.006,10
		C10105.997,3327.998,10127.999,3321.001,10147.999,3292.998z M10193.995,2990c5-18.999,10-72.998,10-120
		c1.006-47.002,4.004-91.001,6.006-98.999c2.998-8.999-3.008-16.001-13.008-18.999c-11.992-2.002-43.994,22.998-96.992,77.998
		c-44.004,45-80,85-80,87.998c0.996,13.003,68.994,81.001,96.992,96.001C10160.001,3037.998,10182.999,3030,10193.995,2990z
		 M10212.999,2642.998c5.996-57.998-11.006-162.998-27.002-162.998c-20,0-69.004,37.998-102.998,80.996
		c-39.004,50-40,56.006-10,64.004c12.002,4.004,32.998,17.002,47.002,30c26.992,24.004,45,32.998,70.996,34.004
		C10202.999,2690,10208.995,2677.998,10212.999,2642.998z M10117.999,2455c-11.006-10.996-37.998,7.998-62.002,45.996
		c-40,60-30.996,63.008,20.996,8.008C10101.993,2482.002,10120.997,2457.002,10117.999,2455z"/>
	<path d="M9771.994,4597.998c-6.992-6.997-11.992-20-11.992-30c0-15.996-20-67.998-42.002-111.997
		c-6.006-11.001-26.006-60-46.006-110c-33.994-86.001-35.996-97.002-35-203.003c1.006-87.998,5-118.999,19.004-142.998
		c40-66.001,85-32.998,259.999,187.002c42.998,53.999,92.998,116.997,110.996,140c18.008,22.998,33.008,47.998,33.008,56.997
		c0,8.003,5,18.003,10,21.001c10,6.001,13.994,45,5,45c-14.004,0-65-32.002-65-40c0-31.001-196.005-190-217.001-177.002
		c-11.006,7.002-7.002,131.001,5,153.003c10.996,21.001,27.002,147.998,22.998,178.999c-2.998,21.001-19.004,45-30,45
		C9786.994,4610,9778.996,4605,9771.994,4597.998z"/>
	<path d="M7656.994,4482.998c-12.998-20.996-37.998-50.996-53.994-67.998c-39.004-41.001-65-82.998-57.998-95
		c2.998-6.001,16.992-10,30.996-10c17.998,0,30,8.999,42.002,32.002c8.994,16.997,28.994,45,43.994,61.997
		c34.004,38.003,43.008,28.003,52.002-52.998c5-46.001-22.002-625-38.994-821.001c-7.002-77.998-7.002-77.998-1.006-370
		c5-280,7.998-341.001,29.004-565c10-117.002,10-165-2.002-295c-12.998-135.996-15-265.996-10.996-665c0-62.998-5-122.002-15-160
		c-9.004-32.998-17.002-67.002-17.002-75c-2.002-44.004,22.002-224.004,30-229.004c5-2.998,17.002-22.998,25.996-43.994
		c17.002-42.002,37.002-45,47.002-6.006c4.004,13.008,17.002,56.006,27.998,94.004c36.006,117.002,45,187.002,55,455
		c2.002,40.996-2.998,127.002-10.996,190.996c-7.002,64.004-12.002,181.006-12.002,260c2.998,340-0.996,481.006-15.996,598.008
		c-9.004,68.994-18.008,128.994-21.006,132.998c-2.998,5-5,85.996-5,180.996c1.006,95-3.994,233.003-10,307.002
		c-7.002,73.999-12.002,157.998-10.996,185c0,125,13.994,417.002,22.998,485c5,41.001,12.002,112.002,15,157.002
		c2.002,45.996,7.998,92.998,12.998,105c12.998,35,4.004,155-15,181.997c-13.994,23.003-82.998,66.001-102.998,66.001
		C7685.998,4520,7670.998,4502.998,7656.994,4482.998z"/>
	<path d="M3281.994,4441c-10.996-25-10-33.003,10-67.002c12.002-21.997,30-48.999,39.004-61.997
		c40-52.002,32.002-169.004-12.002-193.003c-10.996-5-45.996-13.999-77.002-18.999c-30.996-5-72.998-16.001-91.992-22.998
		c-84.004-34.004-182.002-59.004-192.002-49.004c-5.996,6.001-15,50-20,99.004c-12.998,111.997-20.996,131.997-64.004,166.997
		c-53.994,42.002-66.992,31.001-62.998-56.997c2.002-39.004,2.002-114.004,1.006-164.004C2810.002,3966,2798,3945,2733,3935
		c-20.996-2.998-69.004-16.001-107.998-27.998c-37.998-12.002-75-21.001-81.006-19.004c-5.996,1.001-32.998-6.997-60-17.998
		c-58.994-26.001-275.996-80-317.998-80c-17.002,0-65.996,7.002-108.994,15c-98.008,18.999-146.006,18.999-153.008,1.001
		c-5.996-16.001,25-67.002,87.002-143.999c25-32.002,51.006-67.002,57.002-79.004c7.002-11.997,32.998-27.998,60.996-37.998
		c27.002-8.999,55-22.998,61.006-31.001c7.002-6.997,18.994-13.999,27.002-13.999c7.998,0,37.998-12.002,65.996-26.001
		c30.996-15,62.002-23.999,75.996-21.001c14.004,3.003,36.006,0,50-5c41.006-15.996,176.006-10,309.004,14.004
		c169.004,30,172.002,25,70-110c-99.004-129.004-112.998-146.001-147.998-183.003c-62.998-65-79.004-97.998-95-198.999
		c-17.998-103.999-16.006-117.002,17.998-146.001c17.002-13.999,40.996-30,54.004-35c26.992-10,30.996-38.999,5-38.999
		c-10,0-29.004-10.996-42.002-25l-22.998-24.004l27.998-35.996c23.994-32.002,72.998-62.002,127.998-79.004
		c9.004-2.998,17.002-13.994,17.002-25c0-10.996,7.998-25,17.998-30.996c15-9.004,14.004-12.998-17.002-39.004
		c-17.998-15.996-52.998-35-77.002-42.998c-55-15.996-105-77.998-83.994-102.998c15.996-19.004,40-19.004,77.002-0.996
		c121.992,58.994,187.998,85.996,213.994,85.996c24.004,0,30-2.998,25-15.996c-2.998-9.004-5.996-20-5.996-26.006
		c0-17.002-84.004-88.994-111.006-95c-25-5-40.996-17.002-102.998-82.002C2630.002,2194.004,2613,2180,2608.996,2180
		c-7.998,0-72.998-40-95-59.004c-6.992-5-27.998-12.998-47.998-15.996c-20-4.004-35.996-10.996-35.996-15
		c0-15,35.996-17.002,95.996-7.002c32.002,6.006,89.004,10,125,9.004c42.998-1.006,77.002,2.998,95,12.998
		c30,15,94.004,20.996,94.004,7.998c-1.006-17.998-42.002-57.002-150-142.002c-77.998-61.992-122.002-90.996-140-90.996
		c-15,0-50-12.002-80-25.996c-30-14.004-72.002-27.002-94.004-27.002l-40.996-2.002l-2.998-50.996
		c-3.008-50-2.002-53.008,38.994-84.004c46.006-37.002,134.004-70,187.002-70c20,0,62.002,7.002,94.004,15.996
		c45.996,13.008,65,25,85.996,53.008c37.998,50,59.004,67.998,120,97.998c29.004,13.994,55,28.994,57.998,33.994
		s12.002,9.004,20,9.004s40,25,70,55c30.996,30,59.004,55,62.002,55c3.994,0,35.996,27.998,72.002,60.996
		c35.996,33.008,90,77.002,120,97.002s55.996,40,57.998,44.004c2.002,3.994,25.996,23.994,52.998,43.994
		c27.002,19.004,49.004,43.008,49.004,52.002c0,10,6.992,25,13.994,35c12.998,16.006,17.002,14.004,55-30
		c22.002-25.996,41.006-52.002,41.006-55.996c0-17.002-54.004-142.998-92.002-215c-21.006-40-37.998-81.006-37.998-91.006
		s-7.002-23.994-16.006-31.992c-7.998-7.002-42.998-62.002-77.002-123.008C3268,1655,3225.002,1595,3190.002,1560
		c-30-30-66.006-72.002-80-92.002c-14.004-20-55-67.998-92.002-107.002c-37.998-38.994-67.998-76.992-67.998-83.994
		c0-36.006,90.996-64.004,140.996-42.998c45,18.994,97.002,71.992,125,128.994c25,47.998,42.998,72.998,130,175
		c17.002,21.006,34.004,49.004,37.002,62.998c7.998,32.002,60.996,99.004,110,140c20.996,17.002,47.002,50,58.994,72.002
		c11.006,22.998,34.004,57.002,49.004,75c15.996,17.998,29.004,36.006,29.004,40c0,4.004,8.994,12.998,20.996,20
		c17.998,12.002,25.996,10,60.996-12.998c22.002-15,83.008-40,135-57.002c74.004-22.998,105-38.994,139.004-70
		c54.004-50,97.002-52.998,179.004-12.002c55.996,28.008,125,95,125,120c0,7.002,5.996,19.004,12.998,26.006
		c25,25.996,57.002,75.996,57.002,90.996c0,7.998,5.996,20,13.994,26.006c7.002,5.996,16.006,25.996,20,43.994
		c2.998,17.002,12.002,46.006,20,62.002c7.998,17.002,24.004,65.996,36.006,110c11.992,44.004,27.998,95,35.996,112.998
		s14.004,44.004,14.004,57.998c0,14.004,5.996,37.002,13.994,52.002c7.002,15,16.006,50,20,79.004
		c7.998,63.994,32.002,122.998,57.002,140.996c15.996,11.006,17.998,24.004,14.004,95c-4.004,93.003-7.002,103.003-55,179.004
		c-58.008,91.997-148.008,128.999-231.006,93.999c-37.998-15-102.002-23.999-198.994-28.003c-53.008-1.997-64.004,0-61.006,12.002
		c2.998,7.998,19.004,85,36.006,170c26.992,130,35,223.999,25.996,282.002c-2.002,16.997-80,83.999-109.004,95
		c-28.994,10-32.998,8.999-37.998-11.001c-2.998-12.002-0.996-33.999,5-48.999c17.998-46.001-10.996-291.001-40.996-350
		c-5-10-15-46.001-22.998-80c-25-114.004-38.008-137.002-85-158.003c-23.008-10-48.008-18.999-55-18.999
		c-7.002,0-18.008-6.001-24.004-13.999c-7.002-8.003-35-22.002-62.002-32.002c-70-26.001-80-41.001-32.002-50
		c25-5,52.002-1.997,84.004,8.999c25.996,10,50.996,17.002,57.002,17.002c13.994,0,30.996-52.002,22.002-70
		c-5-7.998-24.004-48.999-43.008-90.996c-35-75-35.996-76.006-141.992-147.002c-106.006-71.006-145-86.006-145-57.998
		c0,7.998-10,21.992-22.002,30c-27.002,18.994-157.998,21.992-176.006,3.994c-5.996-5.996-15-7.998-18.994-3.994
		c-9.004,8.994,40.996,50,88.994,70.996c54.004,25.996,57.002,59.004,6.006,104.004c-30,26.997-51.006,36.997-86.006,40.996
		l-46.992,6.001l30,11.997c121.992,50,150,82.002,138.994,161.001c-5.996,47.002-5,48.999,44.004,98.999
		c37.002,38.003,62.002,54.004,95.996,63.003c26.006,6.001,60,23.999,77.002,40c27.998,26.001,30,31.997,22.998,76.001
		c-2.998,25.996-12.002,58.999-20,72.998c-18.994,37.998-103.994,116.001-152.002,141.001c-45,22.998-65.996,21.997-203.994-7.002
		c-31.006-6.997-34.004,0-12.998,36.001c7.998,13.999,13.994,36.001,15,50c0,30,25.996,75,67.998,117.002
		c17.998,16.997,32.002,40.996,32.002,51.997c0,23.999,58.994,65,125.996,88.003c22.998,7.998,49.004,25,57.998,37.998
		c15,22.998,119.004,65,162.002,65c12.998,0,25.996,3.999,29.004,10c2.998,5,25,13.999,47.998,21.001
		c67.002,16.997,87.002,33.999,87.002,73.999c0,27.002-4.004,35-18.008,35c-23.994,0-46.992,47.002-31.992,65
		c25,30-17.002,58.999-125,86.001c-22.002,6.001-44.004,13.999-49.004,20c-5.996,5-27.002,8.999-47.998,8.999
		c-32.998,0-41.006,5-62.002,37.998C3533,4248.999,3508.996,4280,3493,4296c-15,16.001-44.004,46.997-64.004,68.999
		c-40,43.999-112.998,105-125.996,105C3298.996,4470,3288.996,4457.001,3281.994,4441z M2943,2992.998
		c-12.002-110.996-12.998-113.999-82.998-150c-87.002-43.999-152.002-65-162.998-53.999c-6.006,6.001,0.996,18.003,16.992,32.002
		c15,12.998,45,46.997,67.002,75c22.002,28.999,55,62.998,74.004,76.001c18.994,11.997,35,27.998,35,32.998
		c0,8.999,32.002,30,50.996,33.999C2945.002,3038.999,2945.002,3018.999,2943,2992.998z M4305.998,2942.002
		c30.996-28.003,44.004-49.004,50.996-84.004c13.008-57.998,8.008-85-50-267.998C4203,2260,4188,2222.998,4133.996,2174.004
		l-45-41.006l-102.998-5.996c-89.004-6.006-112.002-4.004-164.004,13.994l-60.996,20l29.004,87.002
		c35,106.006,41.992,134.004,73.994,292.002c26.006,129.004,47.998,190,91.006,248.999c13.994,18.999,30,50,35,70
		c18.994,67.002,40,83.003,130.996,102.002C4245.002,2986.001,4258.996,2985,4305.998,2942.002z M2850.002,2600.996
		c0-7.998-24.004-25.996-80-58.994c-15-9.004-7.002,2.002,17.998,27.002C2830.002,2609.004,2850.002,2619.004,2850.002,2600.996z
		 M3690.002,2497.998c-4.004-17.998-20-57.002-34.004-85c-14.004-28.994-25.996-57.998-25.996-62.998c0-14.004-41.006-70-51.006-70
		s-47.002,39.004-60.996,62.998c-7.998,15,3.994,32.002,73.994,102.998c46.006,46.006,88.008,84.004,94.004,84.004
		C3693.996,2530,3695.002,2520,3690.002,2497.998z"/>
	<path d="M13120.001,4265c-14.004-7.998-37.002-13.999-51.006-15c-33.994,0-85.996-17.998-128.994-45
		c-60-37.002-178.008-67.998-262.002-68.999c-42.002-1.001-77.998-3.003-80-6.001c-31.006-40-42.002-71.001-41.006-117.002
		c2.002-61.997,23.008-96.997,73.008-122.998c23.994-12.002,40-28.999,43.994-45c4.004-16.001,12.998-25,26.006-25
		c15,0,20-7.002,20-28.999c0-20,5.996-32.002,17.998-35c32.002-10,65.996-103.003,67.002-176.001
		c0-52.998-4.004-71.001-22.002-93.999c-12.998-16.001-22.998-37.002-22.998-48.003c0-37.998-19.004-57.998-56.006-57.998
		c-18.994,0-62.002-11.001-97.002-25c-33.994-13.999-81.992-28.999-106.992-32.002c-25-2.998-68.008-18.999-96.006-33.999
		c-28.994-16.001-70.996-31.997-95-35c-23.994-3.999-80-23.999-125.996-45c-76.006-36.001-122.998-46.997-272.998-66.001
		c-36.006-3.999-53.008-13.999-92.002-52.998c-27.002-27.002-47.998-52.998-47.998-58.999s21.992-20,48.994-31.001
		c27.002-12.002,61.006-35,77.002-51.001c15-16.001,34.004-28.999,42.002-28.999s35-15,60.996-32.998
		c25-18.003,72.998-43.003,106.006-56.001c32.998-13.999,70.996-32.002,85-42.002c13.994-8.999,45-20,70-22.998
		c25-3.999,78.994-20,120-35.005c90-33.994,155-46.992,165-31.992c2.998,5.996,12.998,10.996,20.996,10.996
		c12.002,0,14.004-9.004,9.004-47.002c-7.002-47.002-54.004-183.994-81.006-232.998c-7.002-14.004-30.996-60.996-52.002-105
		c-56.992-117.998-150-240.996-282.998-375.996c-137.998-140-140.996-148.008-88.994-262.002
		c33.994-74.004,50-84.004,123.994-72.998c55,8.994,167.002,75,224.004,132.998c22.998,22.998,45.996,42.998,50.996,42.998
		c32.002,0,171.006,160.996,171.006,197.998c0,7.998,15,31.006,32.998,52.002c35.996,42.998,108.994,205,132.002,294.004
		c8.994,32.998,18.994,65,23.994,70c5,5.996,14.004,27.998,21.006,48.994c6.992,22.002,17.998,51.006,25.996,65
		c7.998,15,14.004,37.002,14.004,49.004s3.994,23.994,7.998,27.002c5,2.998,43.994-36.006,87.998-87.002
		c95.996-111.006,220-234.004,254.004-252.002c13.994-7.998,61.992-49.004,106.992-92.002
		c181.006-173.994,276.006-258.994,301.006-272.002c15-6.992,40.996-28.994,57.998-46.992c17.998-19.004,40-34.004,50-34.004
		c10.996,0,42.998-15.996,70.996-35c29.004-19.004,61.006-35,72.002-35c11.006,0,22.002-4.004,25-9.004
		c10-15,109.004-56.992,166.006-70.996c30-5.996,75-17.998,100-25c85-24.004,163.994-35,200.996-25.996
		c42.998,10,89.004,38.994,89.004,55.996c0,7.002,5.996,15,12.998,17.998c7.998,2.998,7.002,10-7.002,26.006
		c-17.002,18.994-17.998,22.998-2.998,38.994c10.996,12.002,13.994,30,10,64.004c-4.004,32.002,0,62.998,12.998,97.002
		l17.998,50.996l-32.002,32.998c-17.998,17.998-31.992,41.006-31.992,50c0,22.002-47.002,67.002-69.004,67.002
		c-9.004,0-27.998,14.004-42.002,32.002c-25.996,32.002-27.002,32.002-52.998,13.994c-32.002-20.996-80-13.994-112.002,15
		c-15,14.004-42.002,21.006-103.994,26.006c-68.008,5-84.004,8.994-87.002,23.994c-6.006,20-72.998,59.004-102.998,59.004
		c-11.006,0-20,7.002-20,15c0,9.004-8.008,17.998-17.002,22.002c-10,3.994-37.002,18.994-60,35
		c-24.004,15.996-49.004,27.998-55,27.002c-22.998-4.004-67.998,20-107.002,55.996c-20.996,20-59.004,49.004-85,65
		c-25,15.996-45.996,34.004-45.996,40c0,22.002-2.002,25.996-20,45c-10,10.996-23.008,37.998-29.004,60
		c-7.998,29.004-22.998,49.004-57.002,72.998c-25,19.004-65.996,61.001-92.002,95c-25.996,33.003-65.996,83.003-88.994,109.004
		c-24.004,26.997-42.998,55.996-42.998,63.999c0,21.997,18.994,53.999,30.996,53.999c5.996,0,39.004,12.998,72.998,28.999
		c81.006,38.999,165,56.001,197.998,40c21.006-8.999,32.002-7.998,60,5c27.002,13.003,41.006,13.999,61.006,7.002
		c28.994-11.001,75,1.997,90,26.001c3.994,6.997,20,12.998,33.994,12.998c15,0,41.006,5,60,12.002c30,10.996,32.002,15,30,48.999
		c-0.996,21.001-10,46.001-18.994,56.001c-9.004,10-19.004,35-22.998,55c-6.006,30.996-4.004,38.999,10.996,45
		c25,8.999,32.998,20.996,27.002,43.999c-4.004,13.999-12.998,17.998-37.002,16.001c-25-2.002-32.002,1.997-34.004,20.996
		c-1.992,14.004-10,22.002-22.998,22.002c-13.994,0-18.994,7.002-18.994,26.001c0,22.998-3.008,26.001-25,21.997
		c-15-2.998-45,5-72.002,18.003c-57.998,27.998-82.002,30-97.998,6.997c-10-13.999-16.006-15-28.008-5
		c-10.996,10-22.998,9.004-57.998-3.999c-27.002-11.001-82.002-17.998-143.994-18.999c-103.008-2.998-175-22.998-175-48.999
		c0-16.001-42.002-36.001-76.006-36.001c-13.994,0-37.002,11.001-50.996,23.999c-22.002,21.001-25,30-21.006,68.999
		c3.008,27.002,0,53.003-7.998,68.003c-7.002,12.998-12.998,41.001-13.994,61.001v36.997l107.998-6.001c105-5,107.998-5,167.002,25
		c45,23.003,65,40,77.998,67.002c12.002,25,22.998,35,38.994,35c28.008,0,83.008,32.998,96.006,57.002
		c15,26.997-2.002,160-22.998,182.998c-14.004,15-15,23.999-5,58.999c12.998,50,0.996,78.003-38.008,88.003
		c-15,2.998-47.998,18.999-75,35C13207.999,4277.001,13153.995,4285,13120.001,4265z M13275.001,3500c2.998-5-3.008-10-14.004-10
		c-12.002,0-20.996,5-20.996,10c0,6.001,5.996,10,13.994,10S13271.993,3506.001,13275.001,3500z M13480.001,2430
		c0-12.998-12.002-12.998-47.002,0.996c-26.006,10-26.006,12.002-7.998,19.004
		C13445.997,2457.998,13480.001,2445.996,13480.001,2430z M13645.001,2390c2.998-5,1.992-10-4.004-10c-5,0-12.998,5-15.996,10
		c-3.008,5.996-2.002,10,3.994,10C13633.995,2400,13641.993,2395.996,13645.001,2390z M13718.995,2322.998
		c42.002-27.998,51.006-38.994,37.998-40.996c-10.996-2.002-28.994,5.996-40.996,17.002c-12.002,11.992-30,20.996-39.004,20.996
		c-8.994,0-16.992,2.002-16.992,4.004c0,1.992-3.008,10.996-6.006,20C13645.001,2367.998,13656.993,2364.004,13718.995,2322.998z
		 M13810.001,2320c0-5-4.004-10-10-10c-5,0-10,5-10,10c0,5.996,5,10,10,10C13805.997,2330,13810.001,2325.996,13810.001,2320z
		 M13635.001,2207.998c28.994-12.998,30-40.996,0.996-45.996c-20-4.004-35.996,12.998-35.996,40.996
		C13600.001,2222.998,13600.997,2222.998,13635.001,2207.998z M14030.001,2150c0-5-4.004-10-10-10c-5,0-10,5-10,10
		c0,5.996,5,10,10,10C14025.997,2160,14030.001,2155.996,14030.001,2150z M13833.995,2134.004
		c9.004-23.008,7.998-24.004-13.994-24.004c-19.004,0-27.002,20-13.008,32.998
		C13817.999,2154.004,13826.993,2150.996,13833.995,2134.004z"/>
	<path fill="#B01212" d="M8216.984,1584.658c-7.002-17.002-20-23.994-47.002-25.996c-25-2.002-37.998,0.996-37.998,8.994
		c0,7.002-2.998,9.004-7.002,6.006c-12.002-12.998,30-47.002,59.004-47.002c43.995,0,35.997-32.002-22.002-82.002
		c-52.998-45.996-59.004-57.998-35-77.998c10.996-9.004,20.996-7.002,47.998,14.004l35,26.992l4.004-35.996
		c2.998-29.004,0.996-35-15-35c-16.006,0-17.002-2.998-7.002-15c7.002-7.998,23.995-15,37.002-15c25,0,25-0.996,8.994-22.002
		c-25.996-35.996-30-48.994-17.002-57.002c8.008-5-6.992-15.996-37.999-28.994c-52.998-22.002-57.998-32.002-40.996-77.998
		c10.996-27.002,53.995-74.004,68.995-74.004c27.002,0,44.004,31.006,51.006,95.996c7.002,62.002,5.996,71.006-12.998,85
		c-20,16.006-20,17.002,6.992,52.002c15,20,33.008,37.998,39.004,40c14.004,4.004-15,37.002-32.002,37.002
		c-5.996,0-10.996,15.996-10.996,35c0,40,0,40,62.998,20.996c25.996-7.998,47.002-10.996,47.002-7.998
		c-1.006,19.004-29.004,40-62.998,46.006c-39.004,6.992-39.004,7.998-32.002,43.994c3.994,20,7.002,39.004,7.998,42.002
		c0.996,7.002-37.002,70-42.998,70C8228.986,1606.66,8221.984,1596.66,8216.984,1584.658z M8246.984,1148.662
		c-17.998-75.996-64.004-88.008-91.006-24.004c-16.992,41.006-12.998,46.006,41.006,65c35,12.002,40.996,12.002,47.998,0
		C8249.982,1181.66,8250.979,1163.662,8246.984,1148.662z"/>
	<path d="M6998,4183.999c-4.004-2.998-39.004-8.999-80-13.999c-40-3.999-91.006-15-112.998-22.998
		c-22.002-8.003-87.002-25-145-37.002c-58.008-12.002-130-27.998-160-36.001c-30-7.998-71.006-17.998-90-22.998
		c-86.006-22.002-156.006-45-300-100c-93.008-35-156.006-53.003-255-71.001c-27.002-5-99.004-17.998-160-28.999
		c-178.008-33.003-273.008-37.002-368.008-15C5173,3871,5126.994,3925,5135.998,4060l4.004,65l-20-65
		c-39.004-127.998-16.006-217.002,81.992-312.002c68.008-65,133.008-75.996,315-53.999C5588,3702.998,5668.996,3710,5698,3710
		c50.996,0,145,20,315,66.001c47.998,12.998,95.996,23.999,105.996,23.999s86.006,22.998,170,50
		c84.004,27.998,154.004,50,157.998,50c3.008,0,2.002-7.002-0.996-16.001c-4.004-10,7.998-3.999,27.002,13.003
		c20,16.997,55.996,33.999,90,42.998c32.002,7.002,62.002,18.999,67.998,27.002c5.996,6.997,25.996,12.998,45,12.998
		c17.998,0,35,3.999,37.998,7.998c4.004,7.002,55,23.003,256.006,83.003c75,21.997,123.994,48.999,140,78.999
		c8.994,17.002,6.992,22.002-15,30C7065.998,4191,7006.994,4192.998,6998,4183.999z"/>
	<path d="M6996.994,3822.998c-13.994-12.998-5.996-38.999,20-62.998c42.002-40,77.002-126.001,78.008-192.998
		c0-58.003,0-58.003-57.002-113.003c-32.002-31.001-64.004-53.999-70-51.997c-7.002,1.997-22.002,22.998-32.998,45.996
		c-28.008,58.003-48.008,76.001-74.004,67.002c-10.996-2.998-20.996-12.998-20.996-20c0-31.001-23.008-23.999-63.008,20
		c-40,42.998-45.996,46.001-77.998,40c-18.994-2.998-52.998-2.002-75.996,2.998c-35,8.003-50,6.001-80-8.999
		c-21.006-10-41.006-18.999-46.006-18.999c-8.994,0-3.994,67.998,10,147.998c4.004,27.002,3.008,31.001-10.996,26.001
		c-9.004-2.998-15.996-1.001-15.996,5c0,28.999-19.004,6.001-29.004-36.001c-55.996-221.997-74.004-265.996-130-315.996
		l-35.996-31.001l-3.008,38.999c-2.998,36.001,30,180,49.004,217.002c9.004,15.996,17.002,50,34.004,132.998l5.996,30l-20.996-25
		c-50-57.002-110-198.999-156.006-370c-8.994-36.001-20.996-70-25-75c-7.002-10-45-108.999-77.002-200
		c-5.996-16.001-16.992-63.999-25-105c-7.998-41.001-23.994-107.998-35.996-147.002c-22.998-80-27.998-197.002-10.996-297.998
		c12.998-82.002,60-224.004,83.994-257.998c25-34.004,101.006-82.002,146.006-92.002l32.998-7.002l-6.006,41.006
		c-5.996,45-1.992,48.994,23.008,25.996c21.992-20,90-32.002,90-15.996c0,5.996,11.992,10.996,26.992,10.996
		s36.006,7.998,47.002,19.004c12.002,10,35,22.998,52.998,28.994c42.002,14.004,52.002,2.002,65-87.002
		c10-70.996,18.008-81.992,37.002-57.998c6.006,6.006,24.004,27.998,40,47.998c157.002,188.008,209.004,528.008,141.006,927.002
		c-8.008,45-6.006,62.002,15.996,122.002c25,67.002,44.004,90,44.004,52.002c0-44.004,43.994-149.004,77.998-184.004
		c20-20.996,38.994-37.998,42.998-37.998c22.998,0,37.002,36.001,42.998,108.999c2.998,43.999,15,101.001,26.006,126.001
		c11.992,27.998,17.998,56.001,13.994,71.001c-7.002,26.001,12.998,113.999,26.006,113.999c13.994,0,10-173.999-6.006-280
		c-7.998-57.998-18.994-132.002-22.998-165s-15-73.999-24.004-92.002c-10-17.998-16.992-38.999-16.992-47.998
		s-9.004-53.999-21.006-100c-17.998-74.004-18.994-92.002-8.994-157.002c6.992-40,15-97.998,18.994-127.998
		c5-42.002,10-55.996,24.004-57.998c23.994-5,58.994,27.002,52.002,45.996c-3.008,7.998,1.992,22.998,10,32.002
		c13.994,15.996,20.996,42.998,40.996,155c2.998,17.002,14.004,49.004,25,72.002c10,23.999,19.004,46.997,19.004,51.997
		s13.994,43.003,30,83.999c16.992,42.002,30,85,30,96.001c0,12.002,5,21.001,10,21.001c5.996,0,10-12.002,10-26.001
		c0-17.998,5.996-27.998,20-31.001c22.998-5.996,25-13.999,40-142.998c12.998-115,45.996-232.998,62.998-227.002
		c32.002,10,50.996,225,30,347.002c-16.006,87.998-24.004,270-12.998,270c8.994,0,32.998-47.002,45-87.998
		c7.998-28.003,111.992-142.002,130-142.002c20.996,0,23.994,37.998,5.996,87.002c-20,55-20,90,2.998,186.997
		c9.004,38.003,15,71.001,12.002,73.003c-2.002,1.997-22.998-23.003-45.996-56.001c-54.004-77.002-67.002-82.002-105-37.002
		c-16.006,20-35,36.001-41.006,36.001c-17.998,0-23.994,25-23.994,97.998c0,37.002-7.002,103.003-15,147.002
		c-8.008,43.999-17.002,105-20,136.001c-4.004,31.001-13.008,65-21.006,75c-13.994,17.998-15,16.997-7.002-6.001
		c8.008-27.998,6.006-318.999-2.998-362.002c-5-25.996-8.994-27.998-53.994-27.998h-48.008l-6.992,73.999
		c-4.004,41.001-4.004,78.999-1.006,83.999c11.006,18.003-13.994,116.001-47.998,188.003
		c-42.002,88.999-89.004,143.999-115.996,136.997c-14.004-3.999-20,0-20,11.001C7020.002,3830,7008,3835,6996.994,3822.998z
		 M6563.996,3442.998c9.004-20.996,7.998-405.996,0-438.999l-7.002-25l-25.996,25c-14.004,13.003-47.998,33.003-75.996,43.999
		l-50,20l0.996,58.003c0.996,32.998,12.002,96.997,25.996,143.999c14.004,47.002,29.004,96.001,32.002,110
		c5,22.002,67.998,80,87.002,80C6555.002,3460,6560.998,3452.002,6563.996,3442.998z M6860.002,3327.998
		c0-15.996-3.008-18.999-11.006-10.996c-5.996,5.996-7.998,15.996-5,21.997C6855.002,3356.001,6860.002,3352.002,6860.002,3327.998z
		 M7210.002,3195c0-13.999-2.002-25-4.004-25s-5.996,11.001-7.998,25c-2.998,13.999-1.006,25,2.998,25
		C7205.998,3220,7210.002,3208.999,7210.002,3195z M6280.002,3058.999c-8.008-22.998-10-52.998-6.006-76.001
		c4.004-20.996,11.006-56.997,15-80.996c10-55,17.002-61.001,79.004-69.004c35.996-3.999,52.002-10,52.002-20
		c0-7.998-16.006-47.998-35-87.998c-24.004-52.002-41.006-74.004-57.002-79.004c-24.004-5.996-92.998-103.994-100-140.996
		c-2.002-12.002-11.006-20-22.998-20c-18.008,0-20,7.002-21.006,60c0,32.998-3.994,92.002-7.998,132.002
		c-7.998,70.996,2.998,140.996,50,327.998c17.002,67.998,57.002,136.001,62.998,107.998
		C6290.998,3103.999,6285.998,3080,6280.002,3058.999z M6588.996,2729.004c0-20-5-41.006-10.996-46.006
		c-16.006-12.998-74.004-23.994-81.006-15.996c-5,3.994,40,97.998,71.006,147.998
		C6575.998,2827.002,6586.994,2778.999,6588.996,2729.004z"/>
	<path d="M8676.994,3767.001c91.006-142.002,133.008-199.004,210-280c18.008-19.004,60-33.003,70-24.004
		c3.008,4.004-6.992,31.001-20.996,62.002c-25.996,52.998-134.004,175-154.004,175c-5.996,0-28.994,17.998-51.992,40
		C8690.002,3777.998,8660.002,3793.999,8676.994,3767.001z"/>
	<path fill="#B01212" d="M8752.355,1512.939c-3.994-29.004-6.992-60-6.992-67.998c0.996-7.998-3.008-17.998-9.004-21.006
		c-7.002-3.994-4.004-20,7.998-43.994l17.998-37.998l-31.992-25.996c-18.008-14.004-32.002-34.004-32.002-43.008
		c0-10-4.004-17.998-10-17.998c-5,0-7.002-6.006-4.004-12.998c2.002-7.002-5-24.004-17.002-38.008
		c-35-40-80.996-108.994-71.992-108.994c5,0,17.998,12.002,30,27.998c86.992,105.996,122.998,154.004,122.998,162.002
		c0,5,12.002,22.998,27.002,41.006c23.994,27.988,66.992,128.994,58.994,136.992c-2.002,0.996-12.998-12.998-23.994-32.998
		c-33.008-56.006-43.008-45-40,45C8773.361,1567.939,8764.357,1586.943,8752.355,1512.939z"/>
	<path fill="#B01212" d="M8678.361,1470.947c0-14.004,3.994-27.012,8.994-30c10-7.012,20,22.988,14.004,41.992
		C8693.361,1503.935,8678.361,1495.947,8678.361,1470.947z"/>
	<path fill="#B01212" d="M8813.361,1484.941c2.998-5,30.996-10,60.996-10c34.004,0,52.998,3.994,49.004,10
		c-2.998,6.006-31.006,10-61.006,10C8828.361,1494.941,8809.357,1490.947,8813.361,1484.941z"/>
	<path fill="#B01212" d="M9254.992,1450.84c1.992-11.992-13.008-27.998-44.004-47.998c-25.996-16.006-47.998-33.994-47.998-37.998
		c0-5,3.994-5.996,8.994-3.008c14.004,9.004,21.006-20,21.006-80c0-38.994,3.994-55.996,15-60c7.998-3.994,15-11.992,15-20
		c0-12.988,20-18.994,45-13.994c5,1.006,18.994,2.002,30,2.998c27.998,2.002,32.998,12.002,40.996,84.004
		c5,50,2.998,67.998-10,87.998c-18.994,30-50,35-42.002,7.002c4.004-10.996,1.006-19.004-5.996-19.004s-22.002-2.998-32.998-5.996
		c-12.002-4.004-29.004,0.996-44.004,11.992l-23.994,18.008l51.992,17.998c56.006,17.998,71.006,36.006,51.006,60
		C9265.988,1472.842,9250.988,1471.836,9254.992,1450.84z M9272.99,1300.84c-1.006-10.996-26.006-42.998-34.004-42.998
		s-7.998,35,1.006,42.998C9248.986,1309.844,9272.99,1309.844,9272.99,1300.84z"/>
	<path fill="#B01212" d="M9739.006,1549.805c0-6.006,7.002-11.006,15.996-11.006c10,0,14.004-7.002,12.002-22.002
		c-4.004-28.994-27.998-35-35-8.994c-9.004,32.998-20.996,23.994-22.002-16.006c0-20.996-2.002-45-2.998-52.998
		s2.002-30,7.002-47.998c7.002-31.006,10-32.998,43.994-30c36.006,2.998,36.006,3.994,45,60.996c13.008,82.002,0,130.996-35.996,135
		C9751.008,1558.799,9739.006,1555.801,9739.006,1549.805z M9750.002,1441.797c-7.998-15-10-15-10.996-2.002
		c0,17.002,10,32.002,17.998,25C9759.006,1461.797,9756.008,1451.797,9750.002,1441.797z"/>
	<path fill="#B01212" d="M9897.003,1451.797c-30.996-5-37.002-20-10-25c29.004-5.996,72.998,4.004,69.004,16.006
		C9952.003,1455.801,9936.007,1457.803,9897.003,1451.797z"/>
	<path fill="#B01212" d="M9892.999,1369.795c7.002-10.996,46.006-35,46.006-27.998c0,2.998-12.002,12.002-26.006,22.002
		C9897.999,1372.803,9890.001,1375.801,9892.999,1369.795z"/>
	<path fill="#B01212" d="M9744.006,1321.797c-44.004-7.002-92.002-10.996-107.002-7.998c-20,2.998-27.998,0-27.998-10.996
		c0-25,25.996-27.002,100-9.004c38.994,10,72.998,15,75.996,12.002c2.998-2.002-15-16.006-40-31.006
		c-30-17.998-42.998-30.996-40-40.996c5-12.998,10-12.998,34.004,0c37.002,19.004,62.998,19.004,30,0l-25-15l30,5.996
		c52.002,12.002,75.995,24.004,70,34.004c-2.998,5-17.998,10-32.998,10.996c-25,0-24.004,1.006,10.996,16.006
		C9900.001,1317.803,9852.999,1340.801,9744.006,1321.797z"/>
	<path fill="#B01212" d="M9895.001,1249.795c-2.998-21.992-2.002-50,2.998-62.998c8.008-17.998,10-10,10,40
		c1.006,34.004-0.996,62.002-2.998,62.002S9899.005,1270.801,9895.001,1249.795z"/>
	<path fill="#B01212" d="M9662.004,1191.797c9.004-2.002,25-2.002,35,0c9.004,2.998,0.996,5-17.998,5
		C9660.002,1196.797,9652.004,1194.795,9662.004,1191.797z"/>
	<path fill="#B01212" d="M9771.008,1165.801c30.996-17.998,68.994-41.006,83.993-52.002
		c46.006-32.998,174.004-17.002,174.004,20.996c0,18.008-4.004,17.002-40-0.996c-22.998-12.002-39.004-12.998-75-5
		c-25,5.996-52.998,14.004-62.998,20c-31.005,17.002-114.003,50-126.005,50C9719.006,1198.799,9740.002,1183.799,9771.008,1165.801z
		"/>
</g>
</svg>
